# xmcd
#
# Track frame offsets: 
#        150
#        18715
#        47628
#        65098
#        89590
#        110473
#        136603
#        158243
#        200148
#        225328
#        249753
#        271953
#        295365
#        319725
#
# Disc length: 4700 seconds
#
# Revision: 0
# Processed by: cddbd v1.5.1PL0 Copyright (c) Steve Scherf et al.
# Submitted via: ExactAudioCopy v0.95b3
#
DISCID=c6125a0e
DTITLE=Luther Vandross - Legends of Soul CD1
DYEAR=2005
DGENRE=R&B
TTITLE0=If I Didn't Know Better
TTITLE1=The Closer I Get to You
TTITLE2=Never Too Much
TTITLE3=If This World Were Mine
TTITLE4=She Won't Talk To Me
TTITLE5=Anyone Who Had A Heart
TTITLE6=Give Me The Reason
TTITLE7=Superstar
TTITLE8='Til My Baby Comes Home
TTITLE9=Here And Now
TTITLE10=Always And Forever
TTITLE11=Stop To Love
TTITLE12=Since I Lose My Baby
TTITLE13=Love Won't Let Me Wait
EXTD=
EXTT0=
EXTT1=
EXTT2=
EXTT3=
EXTT4=
EXTT5=
EXTT6=
EXTT7=
EXTT8=
EXTT9=
EXTT10=
EXTT11=
EXTT12=
EXTT13=
PLAYORDER=
